<?xml version="1.0" encoding="UTF-8" standalone="no"?>
<svg
   width="66"
   height="38"
   viewBox="0 0 66 38"
   fill="none"
   version="1.1"
   id="svg23"
   sodipodi:docname="aws2.svg"
   inkscape:version="1.1.2 (b8e25be833, 2022-02-05)"
   xmlns:inkscape="http://www.inkscape.org/namespaces/inkscape"
   xmlns:sodipodi="http://sodipodi.sourceforge.net/DTD/sodipodi-0.dtd"
   xmlns="http://www.w3.org/2000/svg"
   xmlns:svg="http://www.w3.org/2000/svg">
  <defs
     id="defs27" />
  <sodipodi:namedview
     id="namedview25"
     pagecolor="#ffffff"
     bordercolor="#666666"
     borderopacity="1.0"
     inkscape:pageshadow="2"
     inkscape:pageopacity="0.0"
     inkscape:pagecheckerboard="0"
     showgrid="false"
     inkscape:zoom="22.447368"
     inkscape:cx="37.977726"
     inkscape:cy="24.635405"
     inkscape:window-width="3840"
     inkscape:window-height="2008"
     inkscape:window-x="-11"
     inkscape:window-y="-11"
     inkscape:window-maximized="1"
     inkscape:current-layer="svg23" />
  <path
     d="m 20.810024,15.433982 c 0,0.7385 0.0801,1.3372 0.2197,1.7762 0.1772,0.4939 0.3906,0.9742 0.6384,1.4367 0.0998,0.1596 0.1396,0.3192 0.1396,0.4591 0,0.1994 -0.1196,0.399 -0.379,0.5986 l -1.2571,0.8381 c -0.1796,0.1198 -0.3592,0.1796 -0.5191,0.1796 -0.1994,0 -0.399,-0.0998 -0.5986,-0.2794 -0.2689,-0.289 -0.5094,-0.603 -0.7183,-0.9379 -0.1996,-0.339 -0.3992,-0.7185 -0.6186,-1.1773 -1.5566,1.8357 -3.5124,2.7539 -5.867,2.7539 -1.6761,0 -3.0132004,-0.4791 -3.9911004,-1.4368 -0.9777,-0.9581 -1.4765,-2.2352 -1.4765,-3.8315 0,-1.6962 0.5986,-3.0731 1.8159,-4.1108 1.2171,-1.0377 2.8337004,-1.5565 4.8891004,-1.5565 0.6784,0 1.3769,0.0598 2.1151,0.1596 0.7385,0.0998 1.4968,0.2594 2.2951,0.439 V 9.2878825 c 0,-1.5167 -0.3195,-2.5742 -0.9382,-3.1929 -0.6384,-0.6186 -1.7161,-0.9181 -3.2526,-0.9181 -0.6985,0 -1.4167,0.0801 -2.1552,0.2597 -0.7383,0.1794 -1.4568004,0.399 -2.1552004,0.6784 -0.3192,0.1396 -0.5587,0.2194 -0.6985,0.2595 -0.1396,0.04 -0.2394,0.0598 -0.3192,0.0598 -0.2794,0 -0.419,-0.1997 -0.419,-0.6187 v -0.9779 c 0,-0.3192 0.04,-0.5586 0.1396,-0.6982 0.0998,-0.1399 0.2794,-0.2795 0.5588,-0.4191 0.6985,-0.3592 1.5366,-0.6587 2.5142004,-0.8981 0.9782,-0.2594 2.0158,-0.379 3.1133,-0.379 2.3749,0 4.111,0.5386 5.2285,1.6164 1.0975,1.0774 1.6564,2.7138 1.6564,4.909 v 6.4652995 h 0.04 z m -8.1019,3.0333 c 0.6587,0 1.3371,-0.1196 2.0554,-0.3592 0.7185,-0.2394 1.3571,-0.6785 1.8958,-1.2771 0.3194,-0.3791 0.5588,-0.7981 0.6784,-1.2771 0.1198,-0.4789 0.1996,-1.0577 0.1996,-1.7362 v -0.8381 c -0.6051,-0.1473 -1.2181,-0.2605 -1.8359,-0.3392 -0.6222,-0.079 -1.2487,-0.119 -1.8758,-0.1198 -1.3371,0 -2.3148,0.2594 -2.9732,0.7983 -0.6587,0.5388 -0.9779004,1.2971 -0.9779004,2.2947 0,0.9379 0.2394004,1.6364 0.7382004,2.1155 0.4791,0.4988 1.1775,0.7382 2.0954,0.7382 z m 16.0242,2.1552 c -0.3592,0 -0.5986,-0.0598 -0.7582,-0.1996 -0.1596,-0.1196 -0.2995,-0.3991 -0.4191,-0.7781 l -4.6894,-15.4254995 c -0.12,-0.3993 -0.1798,-0.6587 -0.1798,-0.7983 0,-0.3192 0.1596,-0.4991 0.479,-0.4991 h 1.9556 c 0.379,0 0.6387,0.06 0.7783,0.1996 0.1596,0.1199 0.2794,0.3993 0.399,0.7783 l 3.3525,13.2105995 3.1131,-13.2105995 c 0.0998,-0.399 0.2196,-0.6584 0.379,-0.7783 0.1598,-0.1195 0.4393,-0.1994 0.7985,-0.1994 h 1.5963 c 0.379,0 0.6387,0.0598 0.7981,0.1994 0.1598,0.1199 0.2994,0.3993 0.3792,0.7783 l 3.1531,13.3701995 3.4521,-13.3701995 c 0.1196,-0.399 0.2594,-0.6584 0.399,-0.7783 0.1596,-0.1195 0.4191,-0.1994 0.7783,-0.1994 h 1.8557 c 0.3195,0 0.4991,0.1597 0.4991,0.4989 0,0.0998 -0.02,0.1996 -0.04,0.3192 -0.02,0.1198 -0.0598,0.2794 -0.1396,0.4991 l -4.8095,15.4252995 c -0.1196,0.3993 -0.2592,0.6587 -0.419,0.7783 -0.1596,0.1198 -0.419,0.1996 -0.758,0.1996 h -1.7162 c -0.3792,0 -0.6386,-0.0598 -0.7985,-0.1996 -0.1596,-0.1396 -0.2992,-0.399 -0.379,-0.7981 l -3.0933,-12.8712995 -3.0731,12.8510995 c -0.0995,0.3992 -0.2194,0.6587 -0.379,0.7983 -0.1596,0.1398 -0.439,0.1996 -0.798,0.1996 h -1.7164 z m 25.6427,0.5389 c -1.0377,0 -2.0754,-0.1199 -3.0731,-0.3593 -0.9979,-0.2394 -1.7759,-0.4991 -2.2948,-0.798 -0.3194,-0.1799 -0.5391,-0.3793 -0.6186,-0.5589 -0.0777,-0.1761 -0.1185,-0.3663 -0.1198,-0.5589 v -1.0176 c 0,-0.4191 0.1596,-0.6187 0.459,-0.6187 0.1222,4e-4 0.2435,0.0207 0.3592,0.06 0.1196,0.04 0.2993,0.1196 0.4989,0.1994 0.7048,0.31 1.4406,0.5442 2.195,0.6985 0.7816,0.1586 1.5772,0.2388 2.3748,0.2394 1.2571,0 2.235,-0.2194 2.9134,-0.6584 0.6785,-0.4391 1.0377,-1.0775 1.0377,-1.8958 0,-0.5586 -0.1796,-1.0177 -0.5388,-1.3969 -0.3593,-0.3791 -1.0377,-0.7183 -2.0154,-1.0377 l -2.8937,-0.8979 c -1.4567,-0.4591 -2.5342,-1.1375 -3.1928,-2.0356 -0.6585,-0.8780995 -0.9977,-1.8557995 -0.9977,-2.8933995 0,-0.8381 0.1796,-1.5766 0.5388,-2.2153 0.359,-0.6384 0.8381,-1.197 1.4368,-1.6361 0.5986,-0.459 1.2771,-0.7983 2.0753,-1.0377 0.7981,-0.2394 1.6362,-0.3392 2.5142,-0.3392 0.4391,0 0.8981,0.02 1.3372,0.0798 0.459,0.0598 0.8781,0.1396 1.2971,0.2194 0.399,0.0998 0.7783,0.1996 1.1375,0.3195 0.3592,0.1196 0.6384,0.2394 0.8381,0.359 0.2794,0.1598 0.4788,0.3194 0.5986,0.499 0.1198,0.1596 0.1796,0.379 0.1796,0.6585 v 0.9379 c 0,0.419 -0.1596,0.6386 -0.459,0.6386 -0.1596,0 -0.4191,-0.08 -0.758,-0.2396 -1.1378,-0.5189 -2.4149,-0.7783 -3.8316,-0.7783 -1.1375,0 -2.0356,0.1796 -2.6543,0.5589 -0.6184,0.379 -0.9378,0.9579 -0.9378,1.7759 0,0.5589 0.1996,1.0377 0.5986,1.417 0.3993,0.379 1.1375,0.7582 2.1952,1.0974995 l 2.8337,0.898 c 1.4367,0.4591 2.4744,1.0975 3.093,1.9156 0.6187,0.8183 0.9181,1.7562 0.9181,2.7939 0,0.858 -0.1798,1.6363 -0.519,2.3148 -0.359,0.6784 -0.8381,1.2771 -1.4568,1.7561 -0.6186,0.4989 -1.3569,0.8581 -2.215,1.1175 -0.898,0.2795 -1.8359,0.4191 -2.8536,0.4191 z"
     fill="#6b6b6b"
     id="path19" />
  <path
     d="m 58.28017,28.317965 c -6.5652,4.8492 -16.104,7.4235 -24.3055,7.4235 -11.4945,0 -21.8511,-4.2506 -29.6736301,-11.3149 -0.61866,-0.5586 -0.06003,-1.3168 0.67822,-0.878 8.4611101,4.9092 18.8979101,7.8825 29.6938101,7.8825 7.2837,0 15.2858,-1.5165 22.6494,-4.6296 1.0975,-0.4991 2.0354,0.7185 0.9577,1.5165 z m 2.7341,-3.1131 c -0.8381,-1.0775 -5.5477,-0.5188 -7.6829,-0.2594 -0.6387,0.08 -0.7385,-0.4788 -0.1596,-0.8979 3.7515,-2.6342 9.9179,-1.8757 10.6361,-0.9979 0.7185,0.8981 -0.1996,7.0643 -3.7117,10.0177 -0.5387,0.4591 -1.0575,0.2197 -0.8181,-0.379 0.7981,-1.9758 2.5742,-6.4258 1.7362,-7.4835 z"
     fill="#ff9900"
     id="path21" />
</svg>
