<?xml version="1.0" encoding="UTF-8"?>
<svg xmlns="http://www.w3.org/2000/svg" xmlns:xlink="http://www.w3.org/1999/xlink" width="74px" height="78px" viewBox="0 0 74 78" version="1.1">
<g id="surface1">
<path style=" stroke:none;fill-rule:evenodd;fill:rgb(94.901961%,43.137255%,49.411765%);fill-opacity:1;" d="M 12.632812 43.320312 C 15.527344 41.65625 15.53125 36.277344 12.644531 31.304688 C 9.757812 26.328125 5.066406 23.644531 2.175781 25.304688 C -0.71875 26.964844 -0.726562 32.347656 2.164062 37.320312 C 5.050781 42.296875 9.738281 44.980469 12.632812 43.320312 Z M 12.652344 53.972656 C 15.539062 58.945312 15.535156 64.324219 12.640625 65.988281 C 9.746094 67.648438 5.058594 64.964844 2.167969 59.988281 C -0.71875 55.015625 -0.714844 49.632812 2.179688 47.972656 C 5.074219 46.3125 9.761719 48.996094 12.652344 53.972656 Z M 32.375 65.308594 C 35.261719 70.285156 35.257812 75.664062 32.363281 77.328125 C 29.46875 78.988281 24.78125 76.300781 21.894531 71.328125 C 19.003906 66.351562 19.011719 60.972656 21.902344 59.3125 C 24.796875 57.648438 29.484375 60.335938 32.375 65.308594 Z M 32.367188 42.644531 C 35.257812 47.617188 35.25 52.996094 32.359375 54.660156 C 29.464844 56.320312 24.777344 53.636719 21.886719 48.660156 C 19 43.6875 19.003906 38.304688 21.898438 36.644531 C 24.792969 34.984375 29.480469 37.667969 32.367188 42.644531 Z M 32.367188 42.644531 "/>
<path style=" stroke:none;fill-rule:evenodd;fill:rgb(54.117647%,20%,56.862745%);fill-opacity:1;" d="M 71.824219 37.332031 C 74.714844 32.359375 74.707031 26.980469 71.816406 25.316406 C 68.921875 23.65625 64.234375 26.339844 61.34375 31.316406 C 58.457031 36.289062 58.460938 41.671875 61.355469 43.332031 C 64.25 44.992188 68.9375 42.308594 71.824219 37.332031 Z M 71.824219 47.980469 C 74.71875 49.640625 74.726562 55.019531 71.835938 59.996094 C 68.949219 64.96875 64.261719 67.65625 61.367188 65.996094 C 58.472656 64.332031 58.46875 58.953125 61.355469 53.976562 C 64.242188 49.003906 68.929688 46.316406 71.824219 47.980469 Z M 52.105469 59.300781 C 55 60.960938 55.003906 66.339844 52.117188 71.316406 C 49.226562 76.289062 44.539062 78.976562 41.644531 77.316406 C 38.753906 75.652344 38.746094 70.273438 41.636719 65.300781 C 44.523438 60.324219 49.210938 57.636719 52.105469 59.300781 Z M 52.09375 36.636719 C 54.988281 38.300781 54.992188 43.679688 52.105469 48.652344 C 49.21875 53.628906 44.53125 56.3125 41.636719 54.652344 C 38.742188 52.992188 38.734375 47.609375 41.625 42.636719 C 44.511719 37.660156 49.199219 34.976562 52.09375 36.636719 Z M 52.09375 36.636719 "/>
<path style=" stroke:none;fill-rule:evenodd;fill:rgb(96.862745%,74.901961%,16.470588%);fill-opacity:1;" d="M 47.449219 6.015625 C 47.449219 9.339844 42.765625 12.035156 36.992188 12.035156 C 31.214844 12.035156 26.53125 9.339844 26.53125 6.015625 C 26.53125 2.695312 31.214844 0 36.992188 0 C 42.765625 0 47.449219 2.695312 47.449219 6.015625 Z M 27.730469 17.328125 C 27.730469 20.648438 23.046875 23.34375 17.269531 23.34375 C 11.496094 23.34375 6.8125 20.648438 6.8125 17.328125 C 6.8125 14.003906 11.496094 11.308594 17.269531 11.308594 C 23.046875 11.308594 27.730469 14.003906 27.730469 17.328125 Z M 56.734375 23.34375 C 62.511719 23.34375 67.195312 20.648438 67.195312 17.328125 C 67.195312 14.003906 62.511719 11.308594 56.734375 11.308594 C 50.960938 11.308594 46.277344 14.003906 46.277344 17.328125 C 46.277344 20.648438 50.960938 23.34375 56.734375 23.34375 Z M 47.449219 28.660156 C 47.449219 31.984375 42.765625 34.679688 36.992188 34.679688 C 31.214844 34.679688 26.53125 31.984375 26.53125 28.660156 C 26.53125 25.335938 31.214844 22.644531 36.992188 22.644531 C 42.765625 22.644531 47.449219 25.335938 47.449219 28.660156 Z M 47.449219 28.660156 "/>
</g>
</svg>
