<?xml version="1.0" encoding="UTF-8" standalone="no"?>
<svg
   width="90"
   height="89"
   xml:space="preserve"
   overflow="hidden"
   version="1.1"
   id="svg49"
   sodipodi:docname="serverless2.svg"
   inkscape:version="1.1.2 (b8e25be833, 2022-02-05)"
   xmlns:inkscape="http://www.inkscape.org/namespaces/inkscape"
   xmlns:sodipodi="http://sodipodi.sourceforge.net/DTD/sodipodi-0.dtd"
   xmlns="http://www.w3.org/2000/svg"
   xmlns:svg="http://www.w3.org/2000/svg"><sodipodi:namedview
     id="namedview51"
     pagecolor="#ffffff"
     bordercolor="#666666"
     borderopacity="1.0"
     inkscape:pageshadow="2"
     inkscape:pageopacity="0.0"
     inkscape:pagecheckerboard="0"
     showgrid="false"
     inkscape:zoom="19.168539"
     inkscape:cx="44.995604"
     inkscape:cy="58.742087"
     inkscape:window-width="3840"
     inkscape:window-height="2008"
     inkscape:window-x="-11"
     inkscape:window-y="-11"
     inkscape:window-maximized="1"
     inkscape:current-layer="g297" /><defs
     id="defs39"><clipPath
       id="clip0"><rect
         x="756"
         y="344"
         width="90"
         height="89"
         id="rect31" /></clipPath><linearGradient
       x1="4.94444"
       y1="84.0555"
       x2="84.0555"
       y2="4.94444"
       gradientUnits="userSpaceOnUse"
       spreadMethod="pad"
       id="fill1"
       gradientTransform="matrix(1.1451058,0,0,1.1266121,-5.3570852,-5.4255572)"><stop
         offset="0"
         stop-color="#4D27A8"
         id="stop34" /><stop
         offset="1"
         stop-color="#A166FF"
         id="stop36" /></linearGradient></defs><path
     d="M 1.0000041,0.988889 H 89.000345 V 88.0111 H 1.0000041 Z"
     stroke="#879196"
     stroke-width="1.98886"
     fill="none"
     fill-rule="evenodd"
     id="path41" /><g
     id="g297"
     transform="translate(-0.5392731,-0.2262603)"><path
       d="M 0.30482207,0.14490893 H 90.89536 V 89.272381 H 0.30482207 Z"
       fill="url(#fill1)"
       fill-rule="evenodd"
       id="path43"
       style="fill:url(#fill1);stroke-width:1.13582" /></g><path
     d="m 73.251398,51.4276 c 0,5.607 -3.995004,11.2842 -11.628956,11.2842 -7.547087,0 -12.398106,-4.359 -16.934124,-9.0117 -0.173023,-0.177 -1.720018,-1.8423 -1.895974,-2.0332 -1.900019,-2.0569 -3.718026,-3.9931 -5.670023,-5.609 l 0.006,6.3527 -2.000031,0.0019 -0.009,-8.9 c -10e-4,-0.5458 0.446058,-0.9888 0.999004,-0.9898 l 9.009036,-0.0089 0.002,1.9777 -6.77905,0.007 c 2.091042,1.7236 4.038084,3.7993 5.919091,5.8344 0.120944,0.1305 1.351927,1.4448 1.726996,1.8552 4.148005,4.5291 8.820035,8.5459 15.626085,8.5459 6.615026,0 9.629027,-4.8238 9.629027,-9.3064 0,-4.185 -2.750067,-8.6903 -8.787069,-8.6903 -6.874005,0 -10.969021,3.3731 -14.729014,7.4888 -0.183034,-0.2077 -0.366069,-0.4114 -0.549002,-0.621 -0.256046,-0.2917 -0.518058,-0.5835 -0.777037,-0.8762 3.932005,-4.266 8.488045,-7.9694 16.055053,-7.9694 h 0.01396 c -0.228945,-3.0834 -2.11693,-6.1479 -6.85196,-6.1479 h -0.875026 c -0.363035,0 -0.697958,-0.1949 -0.875026,-0.5103 -2.248997,-4.0149 -6.50197,-6.412 -11.375034,-6.412 -7.167972,0 -12.999996,5.7672 -12.999996,12.8556 0,0.5459 -0.447069,0.9889 -1.000015,0.9889 -2.653999,0 -5.116065,1.0551 -6.933051,2.9716 -1.815014,1.9155 -2.719012,4.4193 -2.546009,7.0508 0.321999,4.9157 4.644018,8.7665 9.839061,8.7665 h 2.043009 c 0.483979,0 0.970992,-0.0346 1.450017,-0.1039 1.044914,-0.1503 1.980008,-0.4222 2.776966,-0.8079 2.437998,-1.1817 4.454006,-3.0428 6.40307,-5.162 0.155934,0.177 0.310957,0.3501 0.468912,0.5301 0.282035,0.3213 0.57307,0.6398 0.858037,0.9621 -2.014996,2.1697 -4.202005,4.1623 -6.850038,5.4459 -0.984948,0.4766 -2.117941,0.8099 -3.369957,0.9898 -0.574081,0.0821 -1.158073,0.1236 -1.737007,0.1236 h -2.043009 c -6.246055,0 -11.445072,-4.6636 -11.836068,-10.6157 -0.209003,-3.1832 0.886999,-6.2132 3.083008,-8.5311 1.945008,-2.052 4.608999,-3.3187 7.422976,-3.5561 0.496014,-7.74 7.02104,-13.8859 14.970094,-13.8859 5.403055,0 10.153052,2.576 12.825051,6.9222 h 0.300035 c 5.220021,0 8.651057,3.2297 8.864024,8.274 6.003024,0.9118 8.760979,5.876 8.760979,10.5198"
     fill="#ffffff"
     fill-rule="evenodd"
     id="path45"
     style="stroke-width:1.0056" /></svg>
